<?xml version="1.0"?>
<svg xmlns="http://www.w3.org/2000/svg" xmlns:xlink="http://www.w3.org/1999/xlink" xmlns:svgjs="http://svgjs.com/svgjs" version="1.1" width="512" height="512" x="0" y="0" viewBox="0 0 512.351 512.351" style="enable-background:new 0 0 512 512" xml:space="preserve" class=""><g>
<g xmlns="http://www.w3.org/2000/svg">
	<g>
		<path d="M474.751,37.975c-24.4-24.4-56.4-37.6-90.8-37.6c-34,0-66.4,13.2-90.4,37.6c-51.6,51.2-141.6,268-145.6,277.2    c-0.8,1.6-0.8,3.6-0.4,5.2l-138.4,138.4c-12,12-12.4,32,0,44c6,6,14,9.2,22,9.2s15.6-2.8,21.6-8.8c0.4,0,0.4-0.4,0.8-0.4    l138-138.8c0.8,0,1.2,0.4,2,0.4c1.2,0,2,0,3.2-0.8c9.2-4,228.8-96,278-144.8c24-24,37.6-56.4,37.6-90.4    S499.151,61.975,474.751,37.975z M186.351,266.375c30.8-69.2,84.8-183.6,118.4-217.2c21.2-21.2,49.6-32.8,79.2-32.8    c8.8,0,17.2,1.2,25.6,2.8c-29.6,4-61.6,20.8-87.6,46.8C287.151,100.775,224.351,202.375,186.351,266.375z M195.951,281.975    c37.2-62.8,102.8-170,137.2-204.8c26.8-26.8,60.8-43.2,90.4-43.2c4,0,7.6,0.4,11.2,0.8c-24.4,8.8-55.2,30-84.4,59.2    C314.751,129.575,239.951,224.775,195.951,281.975z M361.551,105.575c39.2-39.2,74.8-57.6,92.8-58.8l-248,248    C249.551,238.375,326.351,140.775,361.551,105.575z M465.551,57.975c-0.4,6-2.8,14.8-8.4,26.4c-10.4,20.8-28,44-50.4,66    c-33.2,33.2-130.4,109.6-187.6,154L465.551,57.975z M417.951,162.375c23.2-23.2,42-48.4,53.2-70.4c2.4-5.2,4.4-10,6-14    c4.8,29.6-10.4,69.2-42,101.2c-32.4,32.4-139.2,97.6-202.8,135.6C289.951,269.975,384.751,195.575,417.951,162.375z     M463.151,207.175c-32,32-145.6,85.2-215.6,116.8c64.8-38.4,165.6-100.8,198.8-133.6c26.8-26.8,42.8-58.8,46.8-88.4    C501.551,138.775,491.951,178.775,463.151,207.175z" fill="#90be6d" data-original="#000000" style="" class=""/>
	</g>
</g>
<g xmlns="http://www.w3.org/2000/svg">
</g>
<g xmlns="http://www.w3.org/2000/svg">
</g>
<g xmlns="http://www.w3.org/2000/svg">
</g>
<g xmlns="http://www.w3.org/2000/svg">
</g>
<g xmlns="http://www.w3.org/2000/svg">
</g>
<g xmlns="http://www.w3.org/2000/svg">
</g>
<g xmlns="http://www.w3.org/2000/svg">
</g>
<g xmlns="http://www.w3.org/2000/svg">
</g>
<g xmlns="http://www.w3.org/2000/svg">
</g>
<g xmlns="http://www.w3.org/2000/svg">
</g>
<g xmlns="http://www.w3.org/2000/svg">
</g>
<g xmlns="http://www.w3.org/2000/svg">
</g>
<g xmlns="http://www.w3.org/2000/svg">
</g>
<g xmlns="http://www.w3.org/2000/svg">
</g>
<g xmlns="http://www.w3.org/2000/svg">
</g>
</g></svg>
