<?xml version="1.0"?>
<svg xmlns="http://www.w3.org/2000/svg" xmlns:xlink="http://www.w3.org/1999/xlink" xmlns:svgjs="http://svgjs.com/svgjs" version="1.1" width="512" height="512" x="0" y="0" viewBox="0 0 511.6 511.6" style="enable-background:new 0 0 512 512" xml:space="preserve" class=""><g>
<g xmlns="http://www.w3.org/2000/svg">
	<g>
		<path d="M501,83.2l-72.8-72.8C421.4,3.6,412.2,0,402.6,0C393,0,383.8,3.6,377,10.4l-70.8,71.2c-26.4,26.4-33.2,65.6-18.4,98.8    C256.6,211.6,9.4,458.8,9.4,458.8c-6,6-9.2,13.6-9.2,22c0,8.4,3.2,16,8.8,22c5.6,5.6,13.6,8.8,22,8.8c8,0,16-3.2,21.6-8.8    c0.4,0,0.4-0.4,0.8-0.4L331.8,224c11.2,4.8,23.2,7.6,35.6,7.6c23.6,0,45.6-9.2,62-25.6l0.4-0.4l71.2-71.2    c6.8-6.8,10.4-16,10.4-25.6C511.4,99.2,507.8,90,501,83.2z M320.6,133.2c-1.6-1.6-2.4-3.6-2.4-5.6s0.8-4,2.4-5.6l80-80    c1.6-1.6,3.6-2.4,5.6-2.4s4,0.8,5.6,2.4c1.6,1.6,2.4,3.6,2.4,5.6s-0.8,4-2.4,5.6l-80,80C328.6,136.4,323.4,136.4,320.6,133.2z     M361,162.4c-3.2,3.2-8.4,3.2-11.2,0c-1.6-1.6-2.4-3.6-2.4-5.6s0.8-4,2.4-5.6l80-80c1.6-1.6,3.6-2.4,5.6-2.4s4,0.8,5.6,2.4    c1.6,1.6,2.4,3.6,2.4,5.6s-0.8,4-2.4,5.6L361,162.4z M470.2,111.6l-80,80c-3.2,3.2-8.4,3.2-11.2,0c-1.6-1.6-2.4-3.6-2.4-5.6    s0.8-4,2.4-5.6l80-80c1.6-1.6,3.6-2.4,5.6-2.4s4,0.8,5.6,2.4c1.6,1.6,2.4,3.6,2.4,5.6S471.8,110,470.2,111.6z" fill="#e63946" data-original="#000000" style="" class=""/>
	</g>
</g>
<g xmlns="http://www.w3.org/2000/svg">
</g>
<g xmlns="http://www.w3.org/2000/svg">
</g>
<g xmlns="http://www.w3.org/2000/svg">
</g>
<g xmlns="http://www.w3.org/2000/svg">
</g>
<g xmlns="http://www.w3.org/2000/svg">
</g>
<g xmlns="http://www.w3.org/2000/svg">
</g>
<g xmlns="http://www.w3.org/2000/svg">
</g>
<g xmlns="http://www.w3.org/2000/svg">
</g>
<g xmlns="http://www.w3.org/2000/svg">
</g>
<g xmlns="http://www.w3.org/2000/svg">
</g>
<g xmlns="http://www.w3.org/2000/svg">
</g>
<g xmlns="http://www.w3.org/2000/svg">
</g>
<g xmlns="http://www.w3.org/2000/svg">
</g>
<g xmlns="http://www.w3.org/2000/svg">
</g>
<g xmlns="http://www.w3.org/2000/svg">
</g>
</g></svg>
